<svg width="16" height="14" viewBox="0 0 16 14" fill="none" xmlns="http://www.w3.org/2000/svg">
<path fill-rule="evenodd" clip-rule="evenodd" d="M1.8065 2.02666C1.5465 1.76666 1.5465 1.34666 1.8065 1.08666C2.0665 0.826663 2.49317 0.826663 2.75317 1.08666L13.6265 11.9733C13.8865 12.2333 13.8865 12.6533 13.6265 12.9133C13.3665 13.1733 12.9465 13.1733 12.6865 12.9133L10.8732 11.1C9.97984 11.4467 9.01317 11.6467 7.99984 11.6467C4.6665 11.6467 1.81984 9.57333 0.666504 6.64666C1.17984 5.33333 2.03984 4.2 3.11984 3.34L1.8065 2.02666ZM11.3332 6.64668C11.3332 4.80668 9.83984 3.31335 7.99984 3.31335C7.65984 3.31335 7.33317 3.38001 7.01984 3.47335L5.57317 2.02668C6.33984 1.78001 7.15317 1.64668 7.99984 1.64668C11.3332 1.64668 14.1798 3.72001 15.3332 6.64001C14.8732 7.81335 14.1398 8.84001 13.2132 9.66002L11.1732 7.62001C11.2665 7.31335 11.3332 6.98668 11.3332 6.64668ZM7.99984 9.97998C6.15984 9.97998 4.6665 8.48665 4.6665 6.64664C4.6665 6.13331 4.7865 5.64664 4.99317 5.21998L6.03984 6.26664C6.01984 6.38664 5.99984 6.51331 5.99984 6.64664C5.99984 7.75331 6.89317 8.64665 7.99984 8.64665C8.13317 8.64665 8.25317 8.62665 8.37984 8.59998L9.4265 9.64665C8.99317 9.85998 8.51317 9.97998 7.99984 9.97998ZM9.97984 6.42667C9.87984 5.49334 9.1465 4.76667 8.21984 4.66667L9.97984 6.42667Z" fill="#9C9C9C"/>
</svg>
