<svg width="30" height="30" viewBox="0 0 30 30" fill="none" xmlns="http://www.w3.org/2000/svg">
<path fill-rule="evenodd" clip-rule="evenodd" d="M15 -0.00012207C6.72 -0.00012207 0 6.71988 0 14.9999C0 23.2799 6.72 29.9999 15 29.9999C23.28 29.9999 30 23.2799 30 14.9999C30 6.71988 23.28 -0.00012207 15 -0.00012207ZM15.0001 4.49988C17.4901 4.49988 19.5001 6.50988 19.5001 8.99988C19.5001 11.4899 17.4901 13.4999 15.0001 13.4999C12.5101 13.4999 10.5001 11.4899 10.5001 8.99988C10.5001 6.50988 12.5101 4.49988 15.0001 4.49988ZM6.0001 20.9698C7.9351 23.8798 11.2501 25.7998 15.0001 25.7998C18.7501 25.7998 22.0651 23.8798 24.0001 20.9698C23.9551 17.9848 17.9851 16.3498 15.0001 16.3498C12.0001 16.3498 6.0451 17.9848 6.0001 20.9698Z" fill="#9C9C9C"/>
</svg>
