<svg width="16" height="16" viewBox="0 0 16 16" fill="none" xmlns="http://www.w3.org/2000/svg">
<g id="delete">
<path id="delete_2" fill-rule="evenodd" clip-rule="evenodd" d="M10.3335 2.66667H12.0002C12.3668 2.66667 12.6668 2.96667 12.6668 3.33333C12.6668 3.7 12.3668 4 12.0002 4H4.00016C3.6335 4 3.3335 3.7 3.3335 3.33333C3.3335 2.96667 3.6335 2.66667 4.00016 2.66667H5.66683L6.14016 2.19333C6.26016 2.07333 6.4335 2 6.60683 2H9.3935C9.56683 2 9.74016 2.07333 9.86016 2.19333L10.3335 2.66667ZM5.3335 14C4.60016 14 4.00016 13.4 4.00016 12.6667V6C4.00016 5.26667 4.60016 4.66667 5.3335 4.66667H10.6668C11.4002 4.66667 12.0002 5.26667 12.0002 6V12.6667C12.0002 13.4 11.4002 14 10.6668 14H5.3335Z" fill="#E4163A"/>
</g>
</svg>
