<svg width="22" height="18" viewBox="0 0 22 18" fill="none" xmlns="http://www.w3.org/2000/svg">
<path fill-rule="evenodd" clip-rule="evenodd" d="M1.99988 0.0100098H19.9999C21.0999 0.0100098 21.9999 0.91001 21.9999 2.01001V15.99C21.9999 17.09 21.0999 17.99 19.9999 17.99H1.97988C0.889878 17.99 -0.00012207 17.1 -0.00012207 16.01V13C-0.00012207 12.45 0.449878 12 0.999878 12C1.54988 12 1.99988 12.45 1.99988 13V15.02C1.99988 15.57 2.44988 16.02 2.99988 16.02H18.9999C19.5499 16.02 19.9999 15.57 19.9999 15.02V2.99001C19.9999 2.44001 19.5499 1.99001 18.9999 1.99001H2.99988C2.44988 1.99001 1.99988 2.44001 1.99988 2.99001V5.00001C1.99988 5.55001 1.54988 6.00001 0.999878 6.00001C0.449878 6.00001 -0.00012207 5.55001 -0.00012207 5.00001V2.01001C-0.00012207 0.91001 0.899878 0.0100098 1.99988 0.0100098ZM13.6399 9.36005L10.8499 12.1501C10.5399 12.4601 9.99988 12.2401 9.99988 11.7901V10.0001H0.999878C0.449878 10.0001 -0.00012207 9.55005 -0.00012207 9.00005C-0.00012207 8.45005 0.449878 8.00005 0.999878 8.00005H9.99988V6.21005C9.99988 5.76005 10.5399 5.54005 10.8499 5.86005L13.6399 8.65005C13.8399 8.85005 13.8399 9.16005 13.6399 9.36005Z" fill="#FF768E"/>
</svg>
