<svg width="16" height="11" viewBox="0 0 16 11" fill="none" xmlns="http://www.w3.org/2000/svg">
<path fill-rule="evenodd" clip-rule="evenodd" d="M7.99984 0.666748C4.6665 0.666748 1.81984 2.74008 0.666504 5.66675C1.81984 8.59341 4.6665 10.6667 7.99984 10.6667C11.3332 10.6667 14.1798 8.59341 15.3332 5.66675C14.1798 2.74008 11.3332 0.666748 7.99984 0.666748ZM7.99984 9.00008C6.15984 9.00008 4.6665 7.50675 4.6665 5.66675C4.6665 3.82675 6.15984 2.33341 7.99984 2.33341C9.83984 2.33341 11.3332 3.82675 11.3332 5.66675C11.3332 7.50675 9.83984 9.00008 7.99984 9.00008ZM5.99984 5.66675C5.99984 4.56008 6.89317 3.66675 7.99984 3.66675C9.1065 3.66675 9.99984 4.56008 9.99984 5.66675C9.99984 6.77341 9.1065 7.66675 7.99984 7.66675C6.89317 7.66675 5.99984 6.77341 5.99984 5.66675Z" fill="#9C9C9C"/>
</svg>
